<svg width="631" height="237" viewBox="0 0 631 237" fill="none" xmlns="http://www.w3.org/2000/svg">
<g filter="url(#filter0_d_2_43)">
<rect x="443.874" y="8.00121" width="105.896" height="105.896" rx="10" transform="rotate(26.0653 443.874 8.00121)" fill="url(#paint0_linear_2_43)"/>
<rect x="444.103" y="8.67005" width="104.896" height="104.896" rx="9.5" transform="rotate(26.0653 444.103 8.67005)" stroke="#4F46E5"/>
</g>
<g filter="url(#filter1_d_2_43)">
<rect x="449.222" y="23.5899" width="82.5827" height="82.5827" rx="10" transform="rotate(26.0653 449.222 23.5899)" fill="#A1A3F7"/>
</g>
<g filter="url(#filter2_d_2_43)">
<path d="M455.3 99.8683L445.475 95.0616L449.322 87.3547L459.085 92.1314C461.316 93.2229 463.45 93.6325 465.486 93.3602C467.531 93.0674 469.449 92.1031 471.239 90.4673C473.038 88.811 474.654 86.5194 476.086 83.5925L477.093 81.5354C478.174 79.3249 478.9 77.2703 479.271 75.3716C479.652 73.4524 479.683 71.7044 479.364 70.1276C479.044 68.5508 478.37 67.1554 477.34 65.9414C476.331 64.7374 474.987 63.7248 473.309 62.9037L463.361 58.0369L467.162 50.2692L477.109 55.136C480.139 56.6181 482.651 58.4817 484.648 60.7268C486.665 62.982 488.118 65.5069 489.009 68.3017C489.919 71.1065 490.24 74.0539 489.972 77.1441C489.703 80.2342 488.787 83.3758 487.225 86.5688L486.249 88.5644C484.697 91.737 482.778 94.3879 480.493 96.5171C478.219 98.6259 475.695 100.181 472.921 101.184C470.178 102.175 467.308 102.572 464.31 102.374C461.312 102.176 458.309 101.34 455.3 99.8683ZM473.026 53.1382L451.155 97.8405L441.146 92.9436L463.017 48.2414L473.026 53.1382Z" fill="#E5E5E5"/>
</g>
<g filter="url(#filter3_d_2_43)">
<rect x="100.562" y="31.0778" width="105.896" height="105.896" rx="10" transform="rotate(-16.5549 100.562 31.0778)" fill="url(#paint1_linear_2_43)"/>
<rect x="101.184" y="31.4146" width="104.896" height="104.896" rx="9.5" transform="rotate(-16.5549 101.184 31.4146)" stroke="#4F46E5"/>
</g>
<g filter="url(#filter4_d_2_43)">
<rect x="314.761" y="22.5974" width="105.896" height="105.896" rx="10" transform="rotate(-4.06088 314.761 22.5974)" fill="url(#paint2_linear_2_43)"/>
<rect x="315.295" y="23.0607" width="104.896" height="104.896" rx="9.5" transform="rotate(-4.06088 315.295 23.0607)" stroke="#4F46E5"/>
</g>
<g filter="url(#filter5_d_2_43)">
<rect x="115.053" y="38.9277" width="82.5827" height="82.5827" rx="10" transform="rotate(-16.5549 115.053 38.9277)" fill="#A1A3F7"/>
</g>
<g filter="url(#filter6_d_2_43)">
<rect x="327.21" y="33.3963" width="82.5827" height="82.5827" rx="10" transform="rotate(-4.06088 327.21 33.3963)" fill="#A1A3F7"/>
</g>
<g filter="url(#filter7_d_2_43)">
<path d="M158.068 88.3476L155.166 43.7832L160.637 42.1573L164.338 46.6913L166.852 92.2271L160.856 94.0088L158.068 88.3476ZM141.962 47.7069L162.386 87.2785L162.723 93.4538L155.909 95.4789L131.379 50.8516L141.962 47.7069ZM181.976 81.2075L177.445 37.1626L187.995 34.0276L191.818 84.8081L185.068 86.8138L181.976 81.2075ZM164.209 41.096L186.313 80.2039L186.903 86.2685L180.94 88.0405L158.005 48.5377L158.737 42.722L164.209 41.096Z" fill="#E5E5E5"/>
</g>
<g filter="url(#filter8_d_2_43)">
<path d="M351.583 47.7891L370.642 46.4377C374.438 46.1685 377.762 46.5039 380.616 47.4437C383.492 48.382 385.759 49.9116 387.417 52.0327C389.075 54.1538 390.021 56.8509 390.253 60.1239C390.446 62.8515 390.167 65.2013 389.416 67.1734C388.665 69.1455 387.527 70.8139 386.002 72.1784C384.499 73.5414 382.707 74.685 380.626 75.6093L377.152 77.843L360.923 78.9937L360.243 70.3728L372.312 69.517C373.972 69.3993 375.326 69.0063 376.375 68.338C377.424 67.6697 378.184 66.782 378.653 65.6751C379.144 64.5438 379.338 63.2508 379.235 61.7961C379.129 60.296 378.753 59.0205 378.107 57.9698C377.461 56.9191 376.562 56.1491 375.407 55.6598C374.275 55.1462 372.89 54.9475 371.253 55.0635L363.309 55.6268L366.218 96.642L355.103 97.4301L351.583 47.7891ZM382.583 95.4815L369.87 74.2132L381.596 73.3475L394.445 94.1264L394.482 94.6378L382.583 95.4815Z" fill="#E5E5E5"/>
</g>
<g filter="url(#filter9_d_2_43)">
<rect x="227.63" y="16.3885" width="105.896" height="105.896" rx="10" transform="rotate(15.5314 227.63 16.3885)" fill="url(#paint3_linear_2_43)" shape-rendering="crispEdges"/>
<rect x="227.977" y="17.0041" width="104.896" height="104.896" rx="9.5" transform="rotate(15.5314 227.977 17.0041)" stroke="#4F46E5" shape-rendering="crispEdges"/>
</g>
<g filter="url(#filter10_d_2_43)">
<rect x="235.737" y="30.7368" width="82.5827" height="82.5827" rx="10" transform="rotate(15.5314 235.737 30.7368)" fill="#A1A3F7"/>
</g>
<g filter="url(#filter11_d_2_43)">
<path d="M285.997 86.0912L285.402 88.2317C284.389 91.8761 282.974 95.0068 281.159 97.624C279.365 100.247 277.262 102.323 274.851 103.852C272.461 105.388 269.851 106.353 267.021 106.749C264.219 107.129 261.293 106.895 258.241 106.046C255.19 105.198 252.551 103.885 250.325 102.107C248.106 100.308 246.347 98.1276 245.048 95.5671C243.772 93.0127 243.031 90.1462 242.827 86.9675C242.623 83.7888 243.027 80.3773 244.041 76.733L244.636 74.5925C245.649 70.9481 247.063 67.8174 248.879 65.2002C250.7 62.5611 252.806 60.474 255.196 58.9389C257.608 57.4099 260.225 56.4584 263.049 56.0846C265.879 55.6888 268.82 55.915 271.871 56.7634C274.923 57.6118 277.558 58.9358 279.778 60.7353C282.004 62.513 283.744 64.6759 284.998 67.2242C286.275 69.7786 287.012 72.6561 287.21 75.8567C287.414 79.0354 287.01 82.4469 285.997 86.0912ZM274.567 85.2197L275.181 83.0133C275.858 80.5765 276.237 78.364 276.317 76.3758C276.402 74.3657 276.205 72.608 275.725 71.1028C275.245 69.5975 274.478 68.3557 273.426 67.3772C272.38 66.3768 271.077 65.66 269.518 65.2266C267.894 64.775 266.386 64.7106 264.996 65.0335C263.611 65.3345 262.325 66.0057 261.137 67.0471C259.97 68.0946 258.905 69.5013 257.941 71.2673C257.005 73.0174 256.199 75.1109 255.521 77.5478L254.908 79.7542C254.236 82.1691 253.847 84.3785 253.739 86.3825C253.659 88.3707 253.857 90.1284 254.331 91.6556C254.805 93.1828 255.554 94.4435 256.578 95.4378C257.625 96.4382 258.96 97.1642 260.585 97.6159C262.144 98.0492 263.618 98.1044 265.009 97.7815C266.421 97.4647 267.725 96.7746 268.919 95.7112C270.113 94.6479 271.179 93.2412 272.114 91.491C273.078 89.7251 273.896 87.6346 274.567 85.2197Z" fill="#E5E5E5"/>
</g>
<g filter="url(#filter12_d_2_43)">
<path d="M138.879 185V127.4H150.399V150.36H186.159V127.4H197.679V185H186.159V162.04H150.399V185H138.879ZM251.806 185C249.672 185 247.726 184.493 245.966 183.48C244.259 182.413 242.872 181.027 241.806 179.32C240.792 177.56 240.286 175.613 240.286 173.48V127.4H251.806V172.92C251.806 173.08 251.832 173.213 251.886 173.32C251.992 173.373 252.126 173.4 252.286 173.4H285.726C285.886 173.4 285.992 173.373 286.046 173.32C286.152 173.213 286.206 173.08 286.206 172.92V127.4H297.886V173.48C297.886 175.613 297.352 177.56 296.286 179.32C295.219 181.027 293.806 182.413 292.046 183.48C290.339 184.493 288.446 185 286.366 185H251.806ZM340.296 185V127.4H352.536L386.216 167.56V127.4H397.896V185H385.656L351.816 144.68V185H340.296ZM460.618 185V139H437.578V127.4H495.178V139H472.218V185H460.618Z" fill="url(#paint4_linear_2_43)" shape-rendering="crispEdges"/>
<path d="M138.879 185H133.879V190H138.879V185ZM138.879 127.4V122.4H133.879V127.4H138.879ZM150.399 127.4H155.399V122.4H150.399V127.4ZM150.399 150.36H145.399V155.36H150.399V150.36ZM186.159 150.36V155.36H191.159V150.36H186.159ZM186.159 127.4V122.4H181.159V127.4H186.159ZM197.679 127.4H202.679V122.4H197.679V127.4ZM197.679 185V190H202.679V185H197.679ZM186.159 185H181.159V190H186.159V185ZM186.159 162.04H191.159V157.04H186.159V162.04ZM150.399 162.04V157.04H145.399V162.04H150.399ZM150.399 185V190H155.399V185H150.399ZM143.879 185V127.4H133.879V185H143.879ZM138.879 132.4H150.399V122.4H138.879V132.4ZM145.399 127.4V150.36H155.399V127.4H145.399ZM150.399 155.36H186.159V145.36H150.399V155.36ZM191.159 150.36V127.4H181.159V150.36H191.159ZM186.159 132.4H197.679V122.4H186.159V132.4ZM192.679 127.4V185H202.679V127.4H192.679ZM197.679 180H186.159V190H197.679V180ZM191.159 185V162.04H181.159V185H191.159ZM186.159 157.04H150.399V167.04H186.159V157.04ZM145.399 162.04V185H155.399V162.04H145.399ZM150.399 180H138.879V190H150.399V180ZM245.966 183.48L243.316 187.72L243.392 187.768L243.471 187.813L245.966 183.48ZM241.806 179.32L237.473 181.815L237.518 181.893L237.566 181.97L241.806 179.32ZM240.286 127.4V122.4H235.286V127.4H240.286ZM251.806 127.4H256.806V122.4H251.806V127.4ZM251.886 173.32L247.414 175.556L248.159 177.047L249.65 177.792L251.886 173.32ZM286.046 173.32L289.581 176.856L289.581 176.856L286.046 173.32ZM286.206 127.4V122.4H281.206V127.4H286.206ZM297.886 127.4H302.886V122.4H297.886V127.4ZM296.286 179.32L300.526 181.97L300.544 181.941L300.562 181.912L296.286 179.32ZM292.046 183.48L294.598 187.779L294.618 187.768L294.637 187.756L292.046 183.48ZM251.806 180C250.502 180 249.423 179.701 248.46 179.147L243.471 187.813C246.029 189.286 248.843 190 251.806 190V180ZM248.616 179.24C247.553 178.576 246.71 177.733 246.046 176.67L237.566 181.97C239.035 184.321 240.965 186.251 243.316 187.72L248.616 179.24ZM246.139 176.825C245.585 175.863 245.286 174.784 245.286 173.48H235.286C235.286 176.443 236 179.257 237.473 181.815L246.139 176.825ZM245.286 173.48V127.4H235.286V173.48H245.286ZM240.286 132.4H251.806V122.4H240.286V132.4ZM246.806 127.4V172.92H256.806V127.4H246.806ZM246.806 172.92C246.806 173.603 246.915 174.56 247.414 175.556L256.358 171.084C256.749 171.867 256.806 172.557 256.806 172.92H246.806ZM249.65 177.792C250.646 178.29 251.602 178.4 252.286 178.4V168.4C252.649 168.4 253.339 168.456 254.122 168.848L249.65 177.792ZM252.286 178.4H285.726V168.4H252.286V178.4ZM285.726 178.4C286.047 178.4 286.553 178.377 287.138 178.231C287.693 178.092 288.685 177.752 289.581 176.856L282.51 169.784C283.353 168.942 284.265 168.641 284.713 168.529C285.191 168.41 285.564 168.4 285.726 168.4V178.4ZM289.581 176.856C290.687 175.75 291.206 174.317 291.206 172.92H281.206C281.206 172.436 281.288 171.871 281.523 171.283C281.761 170.69 282.109 170.185 282.51 169.784L289.581 176.856ZM291.206 172.92V127.4H281.206V172.92H291.206ZM286.206 132.4H297.886V122.4H286.206V132.4ZM292.886 127.4V173.48H302.886V127.4H292.886ZM292.886 173.48C292.886 174.735 292.585 175.779 292.01 176.728L300.562 181.912C302.12 179.341 302.886 176.492 302.886 173.48H292.886ZM292.046 176.67C291.403 177.698 290.561 178.533 289.454 179.204L294.637 187.756C297.051 186.293 299.035 184.356 300.526 181.97L292.046 176.67ZM289.493 179.181C288.597 179.713 287.592 180 286.366 180V190C289.299 190 292.081 189.274 294.598 187.779L289.493 179.181ZM286.366 180H251.806V190H286.366V180ZM340.296 185H335.296V190H340.296V185ZM340.296 127.4V122.4H335.296V127.4H340.296ZM352.536 127.4L356.367 124.187L354.868 122.4H352.536V127.4ZM386.216 167.56L382.385 170.773L391.216 181.303V167.56H386.216ZM386.216 127.4V122.4H381.216V127.4H386.216ZM397.896 127.4H402.896V122.4H397.896V127.4ZM397.896 185V190H402.896V185H397.896ZM385.656 185L381.826 188.214L383.324 190H385.656V185ZM351.816 144.68L355.645 141.466L346.816 130.945V144.68H351.816ZM351.816 185V190H356.816V185H351.816ZM345.296 185V127.4H335.296V185H345.296ZM340.296 132.4H352.536V122.4H340.296V132.4ZM348.705 130.613L382.385 170.773L390.047 164.347L356.367 124.187L348.705 130.613ZM391.216 167.56V127.4H381.216V167.56H391.216ZM386.216 132.4H397.896V122.4H386.216V132.4ZM392.896 127.4V185H402.896V127.4H392.896ZM397.896 180H385.656V190H397.896V180ZM389.485 181.786L355.645 141.466L347.986 147.894L381.826 188.214L389.485 181.786ZM346.816 144.68V185H356.816V144.68H346.816ZM351.816 180H340.296V190H351.816V180ZM460.618 185H455.618V190H460.618V185ZM460.618 139H465.618V134H460.618V139ZM437.578 139H432.578V144H437.578V139ZM437.578 127.4V122.4H432.578V127.4H437.578ZM495.178 127.4H500.178V122.4H495.178V127.4ZM495.178 139V144H500.178V139H495.178ZM472.218 139V134H467.218V139H472.218ZM472.218 185V190H477.218V185H472.218ZM465.618 185V139H455.618V185H465.618ZM460.618 134H437.578V144H460.618V134ZM442.578 139V127.4H432.578V139H442.578ZM437.578 132.4H495.178V122.4H437.578V132.4ZM490.178 127.4V139H500.178V127.4H490.178ZM495.178 134H472.218V144H495.178V134ZM467.218 139V185H477.218V139H467.218ZM472.218 180H460.618V190H472.218V180Z" fill="url(#paint5_linear_2_43)"/>
</g>
<defs>
<filter id="filter0_d_2_43" x="396.718" y="11.3758" width="142.907" height="142.907" filterUnits="userSpaceOnUse" color-interpolation-filters="sRGB">
<feFlood flood-opacity="0" result="BackgroundImageFix"/>
<feColorMatrix in="SourceAlpha" type="matrix" values="0 0 0 0 0 0 0 0 0 0 0 0 0 0 0 0 0 0 127 0" result="hardAlpha"/>
<feOffset dy="4"/>
<feGaussianBlur stdDeviation="2"/>
<feComposite in2="hardAlpha" operator="out"/>
<feColorMatrix type="matrix" values="0 0 0 0 0.075 0 0 0 0 0.0028125 0 0 0 0 0.0028125 0 0 0 0.18 0"/>
<feBlend mode="normal" in2="BackgroundImageFix" result="effect1_dropShadow_2_43"/>
<feBlend mode="normal" in="SourceGraphic" in2="effect1_dropShadow_2_43" result="shape"/>
</filter>
<filter id="filter1_d_2_43" x="412.31" y="26.9645" width="111.721" height="111.721" filterUnits="userSpaceOnUse" color-interpolation-filters="sRGB">
<feFlood flood-opacity="0" result="BackgroundImageFix"/>
<feColorMatrix in="SourceAlpha" type="matrix" values="0 0 0 0 0 0 0 0 0 0 0 0 0 0 0 0 0 0 127 0" result="hardAlpha"/>
<feOffset dy="4"/>
<feGaussianBlur stdDeviation="2"/>
<feComposite in2="hardAlpha" operator="out"/>
<feColorMatrix type="matrix" values="0 0 0 0 0.075 0 0 0 0 0.0028125 0 0 0 0 0.0028125 0 0 0 0.18 0"/>
<feBlend mode="normal" in2="BackgroundImageFix" result="effect1_dropShadow_2_43"/>
<feBlend mode="normal" in="SourceGraphic" in2="effect1_dropShadow_2_43" result="shape"/>
</filter>
<filter id="filter2_d_2_43" x="437.146" y="48.2414" width="64.5333" height="69.661" filterUnits="userSpaceOnUse" color-interpolation-filters="sRGB">
<feFlood flood-opacity="0" result="BackgroundImageFix"/>
<feColorMatrix in="SourceAlpha" type="matrix" values="0 0 0 0 0 0 0 0 0 0 0 0 0 0 0 0 0 0 127 0" result="hardAlpha"/>
<feOffset dy="4"/>
<feGaussianBlur stdDeviation="2"/>
<feComposite in2="hardAlpha" operator="out"/>
<feColorMatrix type="matrix" values="0 0 0 0 0.075 0 0 0 0 0.0028125 0 0 0 0 0.0028125 0 0 0 0.18 0"/>
<feBlend mode="normal" in2="BackgroundImageFix" result="effect1_dropShadow_2_43"/>
<feBlend mode="normal" in="SourceGraphic" in2="effect1_dropShadow_2_43" result="shape"/>
</filter>
<filter id="filter3_d_2_43" x="98.994" y="3.33644" width="134.816" height="134.816" filterUnits="userSpaceOnUse" color-interpolation-filters="sRGB">
<feFlood flood-opacity="0" result="BackgroundImageFix"/>
<feColorMatrix in="SourceAlpha" type="matrix" values="0 0 0 0 0 0 0 0 0 0 0 0 0 0 0 0 0 0 127 0" result="hardAlpha"/>
<feOffset dy="4"/>
<feGaussianBlur stdDeviation="2"/>
<feComposite in2="hardAlpha" operator="out"/>
<feColorMatrix type="matrix" values="0 0 0 0 0.075 0 0 0 0 0.0028125 0 0 0 0 0.0028125 0 0 0 0.18 0"/>
<feBlend mode="normal" in2="BackgroundImageFix" result="effect1_dropShadow_2_43"/>
<feBlend mode="normal" in="SourceGraphic" in2="effect1_dropShadow_2_43" result="shape"/>
</filter>
<filter id="filter4_d_2_43" x="311.443" y="15.7808" width="119.764" height="119.764" filterUnits="userSpaceOnUse" color-interpolation-filters="sRGB">
<feFlood flood-opacity="0" result="BackgroundImageFix"/>
<feColorMatrix in="SourceAlpha" type="matrix" values="0 0 0 0 0 0 0 0 0 0 0 0 0 0 0 0 0 0 127 0" result="hardAlpha"/>
<feOffset dy="4"/>
<feGaussianBlur stdDeviation="2"/>
<feComposite in2="hardAlpha" operator="out"/>
<feColorMatrix type="matrix" values="0 0 0 0 0.075 0 0 0 0 0.0028125 0 0 0 0 0.0028125 0 0 0 0.18 0"/>
<feBlend mode="normal" in2="BackgroundImageFix" result="effect1_dropShadow_2_43"/>
<feBlend mode="normal" in="SourceGraphic" in2="effect1_dropShadow_2_43" result="shape"/>
</filter>
<filter id="filter5_d_2_43" x="113.485" y="17.8292" width="105.826" height="105.826" filterUnits="userSpaceOnUse" color-interpolation-filters="sRGB">
<feFlood flood-opacity="0" result="BackgroundImageFix"/>
<feColorMatrix in="SourceAlpha" type="matrix" values="0 0 0 0 0 0 0 0 0 0 0 0 0 0 0 0 0 0 127 0" result="hardAlpha"/>
<feOffset dy="4"/>
<feGaussianBlur stdDeviation="2"/>
<feComposite in2="hardAlpha" operator="out"/>
<feColorMatrix type="matrix" values="0 0 0 0 0.075 0 0 0 0 0.0028125 0 0 0 0 0.0028125 0 0 0 0.18 0"/>
<feBlend mode="normal" in2="BackgroundImageFix" result="effect1_dropShadow_2_43"/>
<feBlend mode="normal" in="SourceGraphic" in2="effect1_dropShadow_2_43" result="shape"/>
</filter>
<filter id="filter6_d_2_43" x="323.893" y="28.2307" width="94.8583" height="94.8584" filterUnits="userSpaceOnUse" color-interpolation-filters="sRGB">
<feFlood flood-opacity="0" result="BackgroundImageFix"/>
<feColorMatrix in="SourceAlpha" type="matrix" values="0 0 0 0 0 0 0 0 0 0 0 0 0 0 0 0 0 0 127 0" result="hardAlpha"/>
<feOffset dy="4"/>
<feGaussianBlur stdDeviation="2"/>
<feComposite in2="hardAlpha" operator="out"/>
<feColorMatrix type="matrix" values="0 0 0 0 0.075 0 0 0 0 0.0028125 0 0 0 0 0.0028125 0 0 0 0.18 0"/>
<feBlend mode="normal" in2="BackgroundImageFix" result="effect1_dropShadow_2_43"/>
<feBlend mode="normal" in="SourceGraphic" in2="effect1_dropShadow_2_43" result="shape"/>
</filter>
<filter id="filter7_d_2_43" x="127.379" y="34.0276" width="78.7915" height="72.528" filterUnits="userSpaceOnUse" color-interpolation-filters="sRGB">
<feFlood flood-opacity="0" result="BackgroundImageFix"/>
<feColorMatrix in="SourceAlpha" type="matrix" values="0 0 0 0 0 0 0 0 0 0 0 0 0 0 0 0 0 0 127 0" result="hardAlpha"/>
<feOffset dy="4"/>
<feGaussianBlur stdDeviation="2"/>
<feComposite in2="hardAlpha" operator="out"/>
<feColorMatrix type="matrix" values="0 0 0 0 0.075 0 0 0 0 0.0028125 0 0 0 0 0.0028125 0 0 0 0.18 0"/>
<feBlend mode="normal" in2="BackgroundImageFix" result="effect1_dropShadow_2_43"/>
<feBlend mode="normal" in="SourceGraphic" in2="effect1_dropShadow_2_43" result="shape"/>
</filter>
<filter id="filter8_d_2_43" x="347.583" y="44.9968" width="50.8986" height="60.4333" filterUnits="userSpaceOnUse" color-interpolation-filters="sRGB">
<feFlood flood-opacity="0" result="BackgroundImageFix"/>
<feColorMatrix in="SourceAlpha" type="matrix" values="0 0 0 0 0 0 0 0 0 0 0 0 0 0 0 0 0 0 127 0" result="hardAlpha"/>
<feOffset dy="4"/>
<feGaussianBlur stdDeviation="2"/>
<feComposite in2="hardAlpha" operator="out"/>
<feColorMatrix type="matrix" values="0 0 0 0 0.075 0 0 0 0 0.0028125 0 0 0 0 0.0028125 0 0 0 0.18 0"/>
<feBlend mode="normal" in2="BackgroundImageFix" result="effect1_dropShadow_2_43"/>
<feBlend mode="normal" in="SourceGraphic" in2="effect1_dropShadow_2_43" result="shape"/>
</filter>
<filter id="filter9_d_2_43" x="197.584" y="18.6985" width="133.765" height="133.765" filterUnits="userSpaceOnUse" color-interpolation-filters="sRGB">
<feFlood flood-opacity="0" result="BackgroundImageFix"/>
<feColorMatrix in="SourceAlpha" type="matrix" values="0 0 0 0 0 0 0 0 0 0 0 0 0 0 0 0 0 0 127 0" result="hardAlpha"/>
<feOffset dy="4"/>
<feGaussianBlur stdDeviation="2"/>
<feComposite in2="hardAlpha" operator="out"/>
<feColorMatrix type="matrix" values="0 0 0 0 0.075 0 0 0 0 0.0028125 0 0 0 0 0.0028125 0 0 0 0.18 0"/>
<feBlend mode="normal" in2="BackgroundImageFix" result="effect1_dropShadow_2_43"/>
<feBlend mode="normal" in="SourceGraphic" in2="effect1_dropShadow_2_43" result="shape"/>
</filter>
<filter id="filter10_d_2_43" x="211.934" y="33.0468" width="105.06" height="105.06" filterUnits="userSpaceOnUse" color-interpolation-filters="sRGB">
<feFlood flood-opacity="0" result="BackgroundImageFix"/>
<feColorMatrix in="SourceAlpha" type="matrix" values="0 0 0 0 0 0 0 0 0 0 0 0 0 0 0 0 0 0 127 0" result="hardAlpha"/>
<feOffset dy="4"/>
<feGaussianBlur stdDeviation="2"/>
<feComposite in2="hardAlpha" operator="out"/>
<feColorMatrix type="matrix" values="0 0 0 0 0.075 0 0 0 0 0.0028125 0 0 0 0 0.0028125 0 0 0 0.18 0"/>
<feBlend mode="normal" in2="BackgroundImageFix" result="effect1_dropShadow_2_43"/>
<feBlend mode="normal" in="SourceGraphic" in2="effect1_dropShadow_2_43" result="shape"/>
</filter>
<filter id="filter11_d_2_43" x="233.495" y="51.014" width="63.057" height="68.7632" filterUnits="userSpaceOnUse" color-interpolation-filters="sRGB">
<feFlood flood-opacity="0" result="BackgroundImageFix"/>
<feColorMatrix in="SourceAlpha" type="matrix" values="0 0 0 0 0 0 0 0 0 0 0 0 0 0 0 0 0 0 127 0" result="hardAlpha"/>
<feOffset dy="4"/>
<feGaussianBlur stdDeviation="2"/>
<feComposite in2="hardAlpha" operator="out"/>
<feColorMatrix type="matrix" values="0 0 0 0 0.075 0 0 0 0 0.0028125 0 0 0 0 0.0028125 0 0 0 0.18 0"/>
<feBlend mode="normal" in2="BackgroundImageFix" result="effect1_dropShadow_2_43"/>
<feBlend mode="normal" in="SourceGraphic" in2="effect1_dropShadow_2_43" result="shape"/>
</filter>
<filter id="filter12_d_2_43" x="103.879" y="92.4" width="416.299" height="117.6" filterUnits="userSpaceOnUse" color-interpolation-filters="sRGB">
<feFlood flood-opacity="0" result="BackgroundImageFix"/>
<feColorMatrix in="SourceAlpha" type="matrix" values="0 0 0 0 0 0 0 0 0 0 0 0 0 0 0 0 0 0 127 0" result="hardAlpha"/>
<feOffset dx="-5" dy="-5"/>
<feGaussianBlur stdDeviation="15"/>
<feComposite in2="hardAlpha" operator="out"/>
<feColorMatrix type="matrix" values="0 0 0 0 0.631373 0 0 0 0 0.639216 0 0 0 0 0.968627 0 0 0 1 0"/>
<feBlend mode="normal" in2="BackgroundImageFix" result="effect1_dropShadow_2_43"/>
<feBlend mode="normal" in="SourceGraphic" in2="effect1_dropShadow_2_43" result="shape"/>
</filter>
<linearGradient id="paint0_linear_2_43" x1="443.004" y1="10.9278" x2="662.973" y2="269.489" gradientUnits="userSpaceOnUse">
<stop stop-color="#4F46E5"/>
<stop offset="1" stop-color="#948FF4"/>
</linearGradient>
<linearGradient id="paint1_linear_2_43" x1="99.6919" y1="34.0043" x2="319.661" y2="292.565" gradientUnits="userSpaceOnUse">
<stop stop-color="#4F46E5"/>
<stop offset="0.588542" stop-color="#7871E4"/>
</linearGradient>
<linearGradient id="paint2_linear_2_43" x1="313.891" y1="25.5239" x2="533.86" y2="284.085" gradientUnits="userSpaceOnUse">
<stop stop-color="#4F46E5"/>
<stop offset="1" stop-color="#847DF0"/>
</linearGradient>
<linearGradient id="paint3_linear_2_43" x1="226.76" y1="19.3151" x2="446.728" y2="277.876" gradientUnits="userSpaceOnUse">
<stop stop-color="#4F46E5"/>
<stop offset="0.9999" stop-color="#968FFF"/>
<stop offset="1" stop-color="#4F46E5" stop-opacity="0"/>
</linearGradient>
<linearGradient id="paint4_linear_2_43" x1="315.5" y1="72" x2="315.5" y2="237" gradientUnits="userSpaceOnUse">
<stop stop-color="#5E56E1"/>
<stop offset="1" stop-color="#5F56E8"/>
</linearGradient>
<linearGradient id="paint5_linear_2_43" x1="334" y1="142" x2="334" y2="260" gradientUnits="userSpaceOnUse">
<stop stop-color="white"/>
<stop offset="0.331464" stop-color="white" stop-opacity="0"/>
</linearGradient>
</defs>
</svg>
